# xmcd CD database file
#
# Track frame offsets:
#	150
#	21722
#	40247
#	53376
#	67741
#	82171
#	98844
#	120769
#	147874
#	160450
#
# Disc length: 2457 seconds
#
# Revision: 6
# Processed by: cddbd v1.5.2PL0 Copyright (c) Steve Scherf et al.
# Submitted via: CDex 1.51
#
DISCID=7c09970a
DTITLE=ЛСЛХИ РПНККЭ - IN THE MIX
DYEAR=2000
DGENRE=New Age
TTITLE0=лнъ оебхжю  Modulation mix by Moscow Grooves Institute
TTITLE1=аег налюмю  Sweet nabadabadam remix by That Black
TTITLE2=аег налюмю  Havy mental mix (extreme level) by Alex@ndroid
TTITLE3=я мнбшл цнднл, йпньйю  Alex version
TTITLE4=аег налюмю  Synchro mix by Moscow Grooves Institute
TTITLE5=аег налюмю  Space disco remix by AN-2
TTITLE6=мебеярю  Extended t-rollerz mix by MGI
TTITLE7=йюпмюбюкю.мер  TJ Rehmi remix
TTITLE8=аег налюмю  Shizo Robo remix by That Black
TTITLE9=лнъ оебхжю  Netslov remix
EXTD=YEAR: 2000
EXTT0=
EXTT1=
EXTT2=
EXTT3=
EXTT4=
EXTT5=
EXTT6=
EXTT7=
EXTT8=
EXTT9=
PLAYORDER=
